<svg width="40" height="40" viewBox="0 0 40 40" fill="none" xmlns="http://www.w3.org/2000/svg">
<path d="M19.9987 36.6666C17.6931 36.6666 15.5265 36.2291 13.4987 35.3541C11.4709 34.4791 9.70703 33.2916 8.20703 31.7916C6.70703 30.2916 5.51953 28.5277 4.64453 26.4999C3.76953 24.4721 3.33203 22.3055 3.33203 19.9999C3.33203 17.6944 3.76953 15.5277 4.64453 13.4999C5.51953 11.4721 6.70703 9.70825 8.20703 8.20825C9.70703 6.70825 11.4709 5.52075 13.4987 4.64575C15.5265 3.77075 17.6931 3.33325 19.9987 3.33325C22.3043 3.33325 24.4709 3.77075 26.4987 4.64575C28.5265 5.52075 30.2904 6.70825 31.7904 8.20825C33.2904 9.70825 34.4779 11.4721 35.3529 13.4999C36.2279 15.5277 36.6654 17.6944 36.6654 19.9999V22.4166C36.6654 24.0555 36.1029 25.4513 34.9779 26.6041C33.8529 27.7569 32.4709 28.3333 30.832 28.3333C29.8598 28.3333 28.9431 28.1249 28.082 27.7083C27.2209 27.2916 26.4987 26.6944 25.9154 25.9166C25.1098 26.7221 24.2001 27.3263 23.1862 27.7291C22.1723 28.1319 21.1098 28.3333 19.9987 28.3333C17.6931 28.3333 15.7279 27.5208 14.1029 25.8958C12.4779 24.2708 11.6654 22.3055 11.6654 19.9999C11.6654 17.6944 12.4779 15.7291 14.1029 14.1041C15.7279 12.4791 17.6931 11.6666 19.9987 11.6666C22.3043 11.6666 24.2695 12.4791 25.8945 14.1041C27.5195 15.7291 28.332 17.6944 28.332 19.9999V22.4166C28.332 23.1388 28.5681 23.7499 29.0404 24.2499C29.5126 24.7499 30.1098 24.9999 30.832 24.9999C31.5543 24.9999 32.1515 24.7499 32.6237 24.2499C33.0959 23.7499 33.332 23.1388 33.332 22.4166V19.9999C33.332 16.2777 32.0404 13.1249 29.457 10.5416C26.8737 7.95825 23.7209 6.66659 19.9987 6.66659C16.2765 6.66659 13.1237 7.95825 10.5404 10.5416C7.95703 13.1249 6.66536 16.2777 6.66536 19.9999C6.66536 23.7221 7.95703 26.8749 10.5404 29.4583C13.1237 32.0416 16.2765 33.3333 19.9987 33.3333H28.332V36.6666H19.9987ZM19.9987 24.9999C21.3876 24.9999 22.5681 24.5138 23.5404 23.5416C24.5126 22.5694 24.9987 21.3888 24.9987 19.9999C24.9987 18.611 24.5126 17.4305 23.5404 16.4583C22.5681 15.486 21.3876 14.9999 19.9987 14.9999C18.6098 14.9999 17.4293 15.486 16.457 16.4583C15.4848 17.4305 14.9987 18.611 14.9987 19.9999C14.9987 21.3888 15.4848 22.5694 16.457 23.5416C17.4293 24.5138 18.6098 24.9999 19.9987 24.9999Z" fill="#09090B"/>
</svg>
