<svg width="150" height="150" viewBox="0 0 150 150" fill="none" xmlns="http://www.w3.org/2000/svg">
<path d="M91.2375 126.031L95.1035 129.897L75.0004 150L71.1344 146.134L91.2375 126.031Z" fill="#FAFAFA"/>
<path d="M78.8656 146.134L75.0004 150L54.8965 129.897L58.7624 126.031L78.8656 146.134Z" fill="#FAFAFA"/>
<path d="M126.031 58.7631L129.897 54.8972L150 75.0001L146.134 78.8661L126.031 58.7631Z" fill="#FAFAFA"/>
<path d="M146.134 71.135L150 75.0001L129.897 95.1039L126.031 91.238L146.134 71.135Z" fill="#FAFAFA"/>
<path d="M58.7625 23.9689L54.8965 20.103L74.9996 0L78.8656 3.86596L58.7625 23.9689Z" fill="#FAFAFA"/>
<path d="M71.1344 3.86597L74.9996 0L95.1035 20.103L91.2375 23.9689L71.1344 3.86597Z" fill="#FAFAFA"/>
<path d="M23.9691 91.238L20.1031 95.1039L0 75.0009L3.86598 71.135L23.9691 91.238Z" fill="#FAFAFA"/>
<path d="M3.866 78.8661L0 75.0009L20.1031 54.8971L23.9691 58.7631L3.866 78.8661Z" fill="#FAFAFA"/>
<path d="M20.1035 71.907L78.0933 129.896L75.0005 132.989L17.0107 74.9998L20.1035 71.907Z" fill="#FAFAFA"/>
<path d="M78.0925 20.1034L20.1027 78.0928L17.0107 74.9998L74.9997 17.0106L78.0925 20.1034Z" fill="#FAFAFA"/>
<path d="M129.896 78.093L71.9067 20.1036L74.9997 17.0106L132.989 75.0002L129.896 78.093Z" fill="#FAFAFA"/>
<path d="M71.9075 129.897L129.897 71.9072L132.989 75.0002L75.0005 132.989L71.9075 129.897Z" fill="#FAFAFA"/>
<path d="M75 32.4753L117.526 75.0008L75 117.526L32.4742 75.0008L75 32.4753Z" fill="#FAFAFA"/>
</svg>