<svg width="1352" height="868" viewBox="0 0 1352 868" fill="none" xmlns="http://www.w3.org/2000/svg">
<path d="M1127.2 1073.72L1177.53 1112.2L977.443 1373.93L927.11 1335.45L1127.2 1073.72Z" fill="#28262e"/>
<path d="M1015.91 1323.6L977.443 1373.93L715.703 1173.84L754.182 1123.51L1015.91 1323.6Z" fill="#28262e"/>
<path d="M1423.72 247.72L1462.2 197.387L1723.93 397.477L1685.45 447.81L1423.72 247.72Z" fill="#28262e"/>
<path d="M1673.6 359.008L1723.93 397.477L1523.84 659.216L1473.51 620.737L1673.6 359.008Z" fill="#28262e"/>
<path d="M597.712 -48.8097L547.379 -87.2886L747.471 -349.018L797.804 -310.539L597.712 -48.8097Z" fill="#28262e"/>
<path d="M709.001 -298.687L747.471 -349.018L1009.21 -148.929L970.732 -98.5967L709.001 -298.687Z" fill="#28262e"/>
<path d="M301.193 777.206L262.714 827.539L0.982788 627.449L39.462 577.116L301.193 777.206Z" fill="#28262e"/>
<path d="M51.3146 665.919L0.982788 627.449L201.073 365.71L251.406 404.189L51.3146 665.919Z" fill="#28262e"/>
<path d="M227.156 561.091L982.149 1138.27L951.365 1178.54L196.372 601.357L227.156 561.091Z" fill="#28262e"/>
<path d="M813.817 -122.845L236.629 632.144L196.372 601.357L773.551 -153.628L813.817 -122.845Z" fill="#28262e"/>
<path d="M1497.76 463.823L742.766 -113.36L773.551 -153.628L1528.54 423.557L1497.76 463.823Z" fill="#28262e"/>
<path d="M911.097 1147.76L1488.28 392.77L1528.54 423.557L951.365 1178.54L911.097 1147.76Z" fill="#28262e"/>
<path d="M797.263 24.0034L1350.92 447.27L927.653 1000.93L373.992 577.662L797.263 24.0034Z" fill="#28262e"/>
</svg>
