<svg width="220" height="42" viewBox="0 0 220 42" fill="none" xmlns="http://www.w3.org/2000/svg">
    <path d="M14 32H22V42H14V32Z" fill="#09090B" />
    <path d="M0 0L14 26H22L36 0H28L18 19L8 0H0Z" fill="#09090B" />
    <path d="M59.7836 2.58706e-09L45.7836 42H54.2164L64 12.6491L73.7836 42H82.2164L68.2164 2.58706e-09H59.7836Z"
        fill="#09090B" />
    <path d="M138 34H174V42H138V34Z" fill="#09090B" />
    <path
        d="M120.686 17H174V25H128V35.6662C125.086 39.7104 117.943 42.641 110.743 41.8791C99.3143 40.6482 92 32.7356 92 20.9546C92 9.17352 99.4286 0.674768 111.029 0.0300358C117.314 -0.263024 123.143 1.61256 126.8 4.60178L122.857 10.2872C119.714 8.47018 115.6 7.29794 111.2 7.70822C104.686 7.94267 99.7714 13.4522 99.7714 20.9546C99.7714 28.4569 104.171 33.0873 111.371 34.0837C115.314 34.6112 118.629 33.879 120.686 32.2965V17Z"
        fill="#09090B" />
    <path
        d="M138 8V2.58706e-09L206 9.64238e-07C207.77 9.64238e-07 209.51 0.29 211.15 0.87C212.83 1.46 214.35 2.33 215.66 3.44C217.02 4.59 218.08 5.96 218.83 7.49C219.6 9.08 220 10.76 220 12.5C220 14.24 219.61 15.92 218.84 17.5C218.09 19.04 217.02 20.4 215.67 21.55C214.36 22.66 212.85 23.53 211.16 24.12C210.538 24.3388 209.904 24.5163 209.261 24.6525L220 42H212L201.476 25H192V42H184V17H206C206.86 17 207.71 16.86 208.5 16.58C209.26 16.31 209.92 15.94 210.48 15.46C210.99 15.03 211.38 14.53 211.64 14C211.88 13.51 212 13.01 212 12.5C212 11.99 211.88 11.48 211.64 11C211.38 10.47 210.99 9.97 210.48 9.54C209.92 9.06 209.25 8.69 208.5 8.42C207.71 8.14 206.87 8 206 8H138Z"
        fill="#09090B" />
</svg>